<svg width="67" height="67" viewBox="0 0 67 67" fill="none" xmlns="http://www.w3.org/2000/svg">
<circle cx="33.5" cy="33.5" r="33.5" fill="#FC2727"/>
<path d="M24.9387 16.7313L26.732 16.158C28.4153 15.6213 30.2103 16.4897 30.932 18.1863L32.3637 21.5663C32.987 23.038 32.642 24.7697 31.507 25.8463L28.3503 28.843C28.5437 30.6364 29.147 32.4014 30.157 34.138C31.1166 35.8184 32.4037 37.2891 33.942 38.463L37.7337 37.1964C39.172 36.718 40.737 37.2697 41.617 38.5647L43.672 41.5814C44.697 43.088 44.5137 45.1647 43.242 46.4413L41.8787 47.8097C40.522 49.1714 38.5837 49.6664 36.792 49.1063C32.5603 47.7864 28.6703 43.868 25.1203 37.3514C21.5653 30.8247 20.3103 25.2847 21.357 20.738C21.797 18.8247 23.1587 17.2997 24.9387 16.7313Z" fill="white"/>
</svg>
