<svg width="60" height="60" viewBox="0 0 60 60" fill="none" xmlns="http://www.w3.org/2000/svg">
<path d="M31.225 25.68V24.555H34.5925V40.36H32.6675C32.2865 40.3607 31.9207 40.2103 31.6503 39.9418C31.3799 39.6733 31.227 39.3086 31.225 38.9275V38.93C29.8194 39.959 28.122 40.5125 26.38 40.51C24.2034 40.51 22.1159 39.6457 20.5764 38.1072C19.0369 36.5686 18.1713 34.4816 18.17 32.305C18.1713 30.1285 19.0369 28.0415 20.5764 26.5029C22.1159 24.9643 24.2034 24.1 26.38 24.1C28.1212 24.0981 29.8176 24.6516 31.2225 25.68H31.225ZM17.2975 19.475V19.9875C17.2975 20.9425 17.17 21.7225 16.5475 22.6375L16.4725 22.7225C16.2651 22.9551 16.0634 23.1927 15.8675 23.435L5.06 37H17.2975V38.92C17.2975 39.1094 17.2602 39.2968 17.1876 39.4717C17.1151 39.6466 17.0088 39.8054 16.8748 39.9392C16.7409 40.0729 16.5818 40.1789 16.4068 40.2511C16.2318 40.3234 16.0443 40.3604 15.855 40.36H0V39.455C0 38.3475 0.275 37.8525 0.625 37.3375L12.1425 23.075H0.48V19.475H17.3H17.2975ZM38.675 40.36C38.3567 40.36 38.0515 40.2336 37.8265 40.0086C37.6014 39.7835 37.475 39.4783 37.475 39.16V19.475H41.0775V40.36H38.675ZM51.7325 24C52.8179 23.9997 53.8927 24.2132 54.8956 24.6282C55.8984 25.0433 56.8098 25.6518 57.5775 26.419C58.3452 27.1863 58.9543 28.0972 59.3699 29.0998C59.7856 30.1025 59.9997 31.1772 60 32.2625C60.0003 33.3479 59.7869 34.4227 59.3718 35.4256C58.9568 36.4285 58.3482 37.3398 57.581 38.1075C56.8138 38.8752 55.9028 39.4843 54.9002 39.8999C53.8976 40.3156 52.8229 40.5297 51.7375 40.53C49.5455 40.5307 47.443 39.6606 45.8925 38.111C44.3421 36.5615 43.4707 34.4595 43.47 32.2675C43.4693 30.0755 44.3395 27.973 45.889 26.4226C47.4385 24.8721 49.5405 24.0007 51.7325 24ZM26.3825 37.1325C27.0259 37.1472 27.6657 37.0331 28.2643 36.797C28.863 36.5609 29.4084 36.2076 29.8686 35.7577C30.3288 35.3079 30.6945 34.7706 30.9441 34.1775C31.1938 33.5844 31.3224 32.9473 31.3224 32.3038C31.3224 31.6603 31.1938 31.0232 30.9441 30.4301C30.6945 29.8369 30.3288 29.2997 29.8686 28.8498C29.4084 28.4 28.863 28.0466 28.2643 27.8106C27.6657 27.5745 27.0259 27.4604 26.3825 27.475C25.1209 27.5037 23.9206 28.0251 23.0384 28.9275C22.1563 29.83 21.6624 31.0418 21.6624 32.3038C21.6624 33.5658 22.1563 34.7776 23.0384 35.68C23.9206 36.5825 25.1209 37.1038 26.3825 37.1325ZM51.7325 37.125C53.0221 37.125 54.2589 36.6127 55.1708 35.7008C56.0827 34.7889 56.595 33.5522 56.595 32.2625C56.595 30.9729 56.0827 29.7361 55.1708 28.8242C54.2589 27.9123 53.0221 27.4 51.7325 27.4C50.4429 27.4 49.2061 27.9123 48.2942 28.8242C47.3823 29.7361 46.87 30.9729 46.87 32.2625C46.87 33.5522 47.3823 34.7889 48.2942 35.7008C49.2061 36.6127 50.4429 37.125 51.7325 37.125Z" fill="#699BF7"/>
</svg>
